<?xml version="1.0" encoding="UTF-8"?>
<!DOCTYPE svg PUBLIC "-//W3C//DTD SVG 1.1//EN" "http://www.w3.org/Graphics/SVG/1.1/DTD/svg11.dtd">
<!-- Creator: CorelDRAW -->
<svg xmlns="http://www.w3.org/2000/svg" xml:space="preserve" width="0.106661in" height="0.106661in" version="1.1" style="shape-rendering:geometricPrecision; text-rendering:geometricPrecision; image-rendering:optimizeQuality; fill-rule:evenodd; clip-rule:evenodd"
viewBox="0 0 106.66 106.66"
 xmlns:xlink="http://www.w3.org/1999/xlink"
 xmlns:xodm="http://www.corel.com/coreldraw/odm/2003">
 <defs>
  <style type="text/css">
   <![CDATA[
    .fil2 {fill:#FFCC29;fill-rule:nonzero}
    .fil1 {fill:#EC268F;fill-rule:nonzero}
    .fil0 {fill:#00AFEF;fill-rule:nonzero}
    .fil3 {fill:black;fill-rule:nonzero}
   ]]>
  </style>
 </defs>
 <g id="Layer_x0020_1">
  <metadata id="CorelCorpID_0Corel-Layer"/>
  <path class="fil0" d="M87.57 42.28l7.06 0 12.03 0c-3.19,-9.29 -14.03,-27.2 -25.42,-27.3l-30.07 0c8.59,6.8 13.77,16.93 16.71,27.3l19.69 0z"/>
  <path class="fil1" d="M53.12 29.79c-1.67,-2.63 -3.25,-4.49 -5.44,-6.52 -5.17,-4.81 -11.96,-7.75 -20.67,-7.75 -12.69,0 -20.98,10.08 -24.71,22.81 -1.5,5.12 -2.27,10.64 -2.31,16.13 -0.04,5.47 0.67,10.93 2.11,15.94 3.37,11.72 10.89,20.75 22.61,20.75l0 0.01c4.16,-0.2 8.54,-3.49 11.96,-8.56 2.24,-3.31 4.01,-7.33 5.02,-11.75l-34.23 0 -0.74 -3.39c-0.63,-2.86 -0.94,-6 -0.92,-9.21 0.04,-5.94 1.28,-12.07 3.83,-17.07 2.8,-5.47 7.15,-9.63 13.24,-10.97l0 -0c1.3,-0.29 2.72,-0.43 4.26,-0.42l25.99 0z"/>
  <path class="fil2" d="M57.31 37.82l-13.47 0c0.44,0.53 0.86,1.09 1.26,1.66 4.05,5.82 6.14,13.88 6.14,23.06 0,9.43 -2.97,18.24 -7.44,24.86 -1.05,1.55 -2.19,2.98 -3.39,4.29l35.05 0c14.75,-9.81 18.42,-22.98 16.1,-41.89l-30.78 0c-0.75,-4.22 -1.83,-7.99 -3.46,-11.97z"/>
  <path class="fil3" d="M42.65 62.27c-0.04,-7.33 -1.6,-13.59 -4.59,-17.89 -2.56,-3.67 -6.26,-5.9 -11.05,-6.04 -0.77,0 -1.53,0.09 -2.28,0.25l-0.02 0c-3.3,0.73 -5.77,3.2 -7.46,6.48 -1.93,3.77 -2.86,8.53 -2.89,13.21 -0.01,1.34 0.06,2.67 0.2,3.98l28.09 0z"/>
 </g>
</svg>
